<svg id="a36afc1e-2994-47f2-9c93-4a028f196255" data-name="Layer 1" xmlns="http://www.w3.org/2000/svg" width="17" height="19" viewBox="0 0 17 19"><title>logo-union-b.inline</title><path class="svg-interactive" d="M9.13,3l1-3h-2V3h-4A4.12,4.12,0,0,0,0,7.1v.22a4.12,4.12,0,0,0,4,4.09A5.49,5.49,0,0,0,3.17,16l11.09-2.91a5.61,5.61,0,0,0-.81-1.71,4.11,4.11,0,0,0,3.55-4V7.1A4.12,4.12,0,0,0,12.85,3ZM2.59,7.25A1.94,1.94,0,1,1,4.53,9.17,1.93,1.93,0,0,1,2.59,7.25ZM7,10.44a1.4,1.4,0,0,1,2.79,0ZM13.91,5.7l.65.64-.93.91.93.91-.65.64L13,7.89l-.93.91-.65-.64.93-.91-.93-.91.65-.64.93.91ZM3.44,7.25a1.11,1.11,0,1,0,1.1-1.09A1.09,1.09,0,0,0,3.44,7.25ZM5,16.08a4,4,0,0,0,4.89,2.79A3.94,3.94,0,0,0,12.67,14Z"/></svg>
