<svg width="17" height="19" viewBox="0 0 17 19" fill="none" xmlns="http://www.w3.org/2000/svg">
<path fill-rule="evenodd" clip-rule="evenodd" d="M9.12849 3L10.1428 0H8.11421V3H4.15413C1.85991 3 0 4.83365 0 7.09557V7.31636C0 9.51576 1.75853 11.3097 3.96487 11.4073C3.06552 12.7066 2.72389 14.3629 3.16972 15.9943L14.2558 13.0819C14.0837 12.4521 13.8071 11.8772 13.4508 11.3683C15.4582 11.0795 17 9.37568 17 7.31636V7.09557C17 4.83365 15.1402 3 12.8459 3H9.12849ZM2.59157 7.25061C2.59157 6.19228 3.45952 5.33429 4.53014 5.33429C5.60076 5.33429 6.46871 6.19228 6.46871 7.25061C6.46871 8.30894 5.60076 9.16692 4.53014 9.16692C3.45952 9.16692 2.59157 8.30894 2.59157 7.25061ZM7.03275 10.4366C7.03275 9.67951 7.65565 9.08448 8.42397 9.08448C9.19229 9.08448 9.81511 9.67951 9.81511 10.4366H7.03275ZM13.9114 5.69636L14.5578 6.33536L13.6327 7.25001L14.5578 8.16465L13.9114 8.80357L12.9864 7.889L12.0615 8.80357L11.415 8.16465L12.3401 7.25001L11.415 6.33536L12.0615 5.69636L12.9864 6.61093L13.9114 5.69636ZM3.4365 7.2494C3.4365 7.85015 3.93095 8.33712 4.54089 8.33712C5.15074 8.33712 5.6452 7.85015 5.6452 7.2494C5.6452 6.64873 5.15074 6.16177 4.54089 6.16177C3.93095 6.16177 3.4365 6.64873 3.4365 7.2494ZM4.95561 16.0784C5.52705 18.1798 7.71693 19.4275 9.84697 18.8651C11.9769 18.3028 13.2403 16.1433 12.6689 14.0419L4.95561 16.0784Z" fill="#B6B39A"/>
</svg>
